<?xml version="1.0" encoding="UTF-8" standalone="no"?>
<!-- Created with Inkscape (http://www.inkscape.org/) -->

<svg
   xmlns:dc="http://purl.org/dc/elements/1.1/"
   xmlns:cc="http://creativecommons.org/ns#"
   xmlns:rdf="http://www.w3.org/1999/02/22-rdf-syntax-ns#"
   xmlns:svg="http://www.w3.org/2000/svg"
   xmlns="http://www.w3.org/2000/svg"
   xmlns:xlink="http://www.w3.org/1999/xlink"
   xmlns:sodipodi="http://sodipodi.sourceforge.net/DTD/sodipodi-0.dtd"
   xmlns:inkscape="http://www.inkscape.org/namespaces/inkscape"
   width="85mm"
   height="65mm"
   viewBox="0 0 85 65"
   version="1.1"
   id="svg8"
   inkscape:version="0.92.1 r"
   sodipodi:docname="DCR-comp.svg"
   inkscape:export-filename="DCR-comp.png"
   inkscape:export-xdpi="600.15002"
   inkscape:export-ydpi="600.15002">
  <defs
     id="defs2"
     style="stroke-linecap:butt;stroke-linejoin:round">
    <style
       id="style5660"
       type="text/css">
*{stroke-linecap:butt;stroke-linejoin:round;}
  </style>
    <path
       style="stroke:#000000;stroke-width:0.80000001;stroke-linecap:butt;stroke-linejoin:round"
       id="m1c9bb34240"
       d="M 0,0 V 3.5"
       inkscape:connector-curvature="0" />
    <path
       id="ArialMT-30"
       d="m 4.15625,35.296875 q 0,12.703125 2.609375,20.4375 2.609375,7.75 7.75,11.9375 5.15625,4.203125 12.96875,4.203125 5.765625,0 10.109375,-2.328125 4.34375,-2.3125 7.171875,-6.6875 Q 47.609375,58.5 49.21875,52.21875 q 1.609375,-6.265625 1.609375,-16.921875 0,-12.59375 -2.59375,-20.328125 Q 45.65625,7.234375 40.5,3 35.359375,-1.21875 27.484375,-1.21875 q -10.34375,0 -16.25,7.421875 -7.078125,8.9375 -7.078125,29.09375 z m 9.03125,0 q 0,-17.625 4.125,-23.46875 Q 21.4375,6 27.484375,6 q 6.0625,0 10.1875,5.859375 4.125,5.859375 4.125,23.4375 0,17.6875 -4.125,23.484375 -4.125,5.8125 -10.28125,5.8125 -6.046875,0 -9.671875,-5.125 Q 13.1875,52.9375 13.1875,35.296875 Z"
       inkscape:connector-curvature="0"
       style="stroke-linecap:butt;stroke-linejoin:round" />
    <path
       id="ArialMT-31"
       d="m 37.25,0 h -8.78125 v 56 q -3.171875,-3.015625 -8.328125,-6.046875 -5.15625,-3.03125 -9.25,-4.546875 v 8.5 q 7.375,3.46875 12.890625,8.390625 5.515625,4.9375 7.8125,9.578125 H 37.25 Z"
       inkscape:connector-curvature="0"
       style="stroke-linecap:butt;stroke-linejoin:round" />
    <path
       id="ArialMT-32"
       d="M 50.34375,8.453125 V 0 H 3.03125 Q 2.9375,3.171875 4.046875,6.109375 5.859375,10.9375 9.828125,15.625 13.8125,20.3125 21.34375,26.46875 q 11.671875,9.5625 15.765625,15.15625 4.109375,5.59375 4.109375,10.578125 0,5.21875 -3.75,8.796875 -3.734375,3.59375 -9.734375,3.59375 -6.34375,0 -10.15625,-3.8125 Q 13.765625,56.984375 13.71875,50.25 L 4.6875,51.171875 q 0.921875,10.109375 6.96875,15.40625 6.0625,5.296875 16.28125,5.296875 10.296875,0 16.296875,-5.71875 Q 50.25,60.453125 50.25,52 50.25,47.703125 48.484375,43.546875 46.734375,39.40625 42.65625,34.8125 38.578125,30.21875 29.109375,22.21875 21.1875,15.578125 18.9375,13.203125 q -2.234375,-2.359375 -3.703125,-4.75 z"
       inkscape:connector-curvature="0"
       style="stroke-linecap:butt;stroke-linejoin:round" />
    <path
       id="ArialMT-33"
       d="m 4.203125,18.890625 8.78125,1.171875 Q 14.5,12.59375 18.140625,9.296875 21.78125,6 27,6 33.203125,6 37.46875,10.296875 41.75,14.59375 41.75,20.953125 q 0,6.046875 -3.953125,9.96875 -3.953125,3.9375 -10.0625,3.9375 -2.484375,0 -6.203125,-0.96875 l 0.984375,7.71875 Q 23.390625,41.5 23.921875,41.5 q 5.625,0 10.109375,2.921875 4.5,2.9375 4.5,9.046875 0,4.828125 -3.28125,8 -3.265625,3.1875 -8.4375,3.1875 -5.125,0 -8.546875,-3.234375 -3.421875,-3.21875 -4.390625,-9.65625 l -8.796875,1.5625 q 1.609375,8.828125 7.3125,13.6875 5.71875,4.859375 14.21875,4.859375 5.859375,0 10.78125,-2.515625 4.9375,-2.515625 7.546875,-6.859375 2.625,-4.34375 2.625,-9.234375 0,-4.625 -2.5,-8.4375 -2.484375,-3.8125 -7.359375,-6.0625 6.34375,-1.453125 9.859375,-6.078125 3.515625,-4.609375 3.515625,-11.546875 0,-9.375 -6.84375,-15.890625 -6.828125,-6.515625 -17.28125,-6.515625 -9.421875,0 -15.65625,5.609375 -6.21875,5.625 -7.09375,14.546875 z"
       inkscape:connector-curvature="0"
       style="stroke-linecap:butt;stroke-linejoin:round" />
    <path
       id="ArialMT-34"
       d="m 32.328125,0 v 17.140625 h -31.0625 v 8.0625 l 32.671875,46.375 h 7.171875 v -46.375 h 9.671875 v -8.0625 H 41.109375 V 0 Z m 0,25.203125 V 57.46875 L 9.90625,25.203125 Z"
       inkscape:connector-curvature="0"
       style="stroke-linecap:butt;stroke-linejoin:round" />
    <path
       id="ArialMT-35"
       d="M 4.15625,18.75 13.375,19.53125 Q 14.40625,12.796875 18.140625,9.390625 21.875,6 27.15625,6 33.5,6 37.890625,10.78125 42.28125,15.578125 42.28125,23.484375 42.28125,31 38.0625,35.34375 33.84375,39.703125 27,39.703125 q -4.25,0 -7.671875,-1.9375 -3.40625,-1.921875 -5.359375,-5 l -8.25,1.078125 6.921875,36.765625 H 48.25 v -8.40625 H 19.671875 L 15.828125,42.96875 q 6.4375,4.5 13.515625,4.5 9.375,0 15.8125,-6.5 6.453125,-6.5 6.453125,-16.703125 0,-9.71875 -5.65625,-16.796875 -6.890625,-8.6875 -18.796875,-8.6875 -9.765625,0 -15.953125,5.46875 Q 5.03125,9.71875 4.15625,18.75 Z"
       inkscape:connector-curvature="0"
       style="stroke-linecap:butt;stroke-linejoin:round" />
    <path
       id="ArialMT-36"
       d="M 49.75,54.046875 41.015625,53.375 q -1.171875,5.171875 -3.3125,7.515625 -3.578125,3.765625 -8.796875,3.765625 -4.203125,0 -7.375,-2.34375 Q 17.390625,59.28125 14.984375,53.46875 12.59375,47.65625 12.5,36.921875 15.671875,41.75 20.265625,44.09375 q 4.59375,2.34375 9.625,2.34375 8.78125,0 14.953125,-6.46875 Q 51.03125,33.5 51.03125,23.25 51.03125,16.5 48.125,10.71875 45.21875,4.9375 40.140625,1.859375 35.0625,-1.21875 28.609375,-1.21875 17.625,-1.21875 10.6875,6.859375 3.765625,14.9375 3.765625,33.5 q 0,20.75 7.65625,30.171875 6.6875,8.203125 18.015625,8.203125 8.453125,0 13.84375,-4.734375 Q 48.6875,62.40625 49.75,54.046875 Z M 13.875,23.1875 q 0,-4.53125 1.921875,-8.6875 Q 17.71875,10.359375 21.1875,8.171875 24.65625,6 28.46875,6 q 5.5625,0 9.5625,4.484375 4.015625,4.5 4.015625,12.21875 0,7.421875 -3.96875,11.6875 -3.953125,4.28125 -9.953125,4.28125 -5.953125,0 -10.109375,-4.28125 Q 13.875,30.125 13.875,23.1875 Z"
       inkscape:connector-curvature="0"
       style="stroke-linecap:butt;stroke-linejoin:round" />
    <path
       id="ArialMT-37"
       d="m 4.734375,62.203125 v 8.453125 h 46.34375 V 63.8125 Q 44.234375,56.546875 37.515625,44.484375 30.8125,32.421875 27.15625,19.671875 24.515625,10.6875 23.78125,0 H 14.75 q 0.140625,8.453125 3.3125,20.40625 3.171875,11.96875 9.109375,23.078125 5.9375,11.109375 12.625,18.71875 z"
       inkscape:connector-curvature="0"
       style="stroke-linecap:butt;stroke-linejoin:round" />
    <path
       id="ArialMT-38"
       d="m 17.671875,38.8125 q -5.46875,2.015625 -8.109375,5.71875 -2.625,3.71875 -2.625,8.890625 0,7.8125 5.609375,13.125 5.625,5.328125 14.9375,5.328125 9.375,0 15.09375,-5.453125 5.71875,-5.4375 5.71875,-13.25 0,-4.984375 -2.625,-8.671875 Q 43.0625,40.828125 37.75,38.8125 q 6.59375,-2.140625 10.03125,-6.9375 3.4375,-4.78125 3.4375,-11.421875 0,-9.171875 -6.5,-15.421875 -6.484375,-6.25 -17.078125,-6.25 -10.59375,0 -17.09375,6.265625 -6.5,6.28125 -6.5,15.65625 0,6.984375 3.546875,11.6875 3.546875,4.71875 10.078125,6.421875 z m -1.75,14.90625 q 0,-5.078125 3.265625,-8.3125 3.28125,-3.21875 8.5,-3.21875 5.078125,0 8.328125,3.1875 3.25,3.203125 3.25,7.84375 0,4.84375 -3.359375,8.140625 -3.34375,3.296875 -8.3125,3.296875 -5.03125,0 -8.359375,-3.234375 -3.3125,-3.21875 -3.3125,-7.703125 z M 13.09375,20.65625 q 0,-3.765625 1.78125,-7.28125 Q 16.65625,9.859375 20.171875,7.921875 23.6875,6 27.734375,6 34.03125,6 38.125,10.046875 q 4.109375,4.0625 4.109375,10.3125 0,6.34375 -4.21875,10.5 -4.21875,4.15625 -10.578125,4.15625 -6.203125,0 -10.28125,-4.109375 -4.0625,-4.09375 -4.0625,-10.25 z"
       inkscape:connector-curvature="0"
       style="stroke-linecap:butt;stroke-linejoin:round" />
    <path
       id="ArialMT-39"
       d="m 5.46875,16.546875 8.453125,0.78125 Q 14.984375,11.375 18.015625,8.6875 21.046875,6 25.78125,6 q 4.046875,0 7.09375,1.859375 3.0625,1.859375 5.015625,4.953125 1.953125,3.109375 3.265625,8.375 1.328125,5.28125 1.328125,10.75 0,0.578125 -0.04687,1.75 Q 39.79688,29.5 35.23438,26.875 q -4.5625,-2.609375 -9.890625,-2.609375 -8.890625,0 -15.046875,6.4375 -6.140625,6.453125 -6.140625,17 0,10.890625 6.421875,17.53125 Q 17,71.875 26.65625,71.875 q 6.984375,0 12.765625,-3.765625 5.796875,-3.75 8.796875,-10.71875 3,-6.953125 3,-20.140625 0,-13.71875 -2.984375,-21.84375 -2.96875,-8.125 -8.859375,-12.375 -5.875,-4.25 -13.78125,-4.25 -8.40625,0 -13.734375,4.65625 -5.3125,4.671875 -6.390625,13.109375 z m 35.984375,31.59375 q 0,7.578125 -4.03125,12.015625 -4.015625,4.4375 -9.6875,4.4375 -5.859375,0 -10.203125,-4.78125 -4.34375,-4.78125 -4.34375,-12.40625 0,-6.828125 4.125,-11.109375 4.125,-4.265625 10.171875,-4.265625 6.109375,0 10.03125,4.265625 3.9375,4.28125 3.9375,11.84375 z"
       inkscape:connector-curvature="0"
       style="stroke-linecap:butt;stroke-linejoin:round" />
    <path
       style="stroke:#000000;stroke-width:0.80000001;stroke-linecap:butt;stroke-linejoin:round"
       id="mba5a4f06b4"
       d="M 0,0 H -3.5"
       inkscape:connector-curvature="0" />
    <path
       id="ArialMT-44"
       d="M 7.71875,0 V 71.578125 H 32.375 q 8.34375,0 12.75,-1.015625 6.140625,-1.421875 10.484375,-5.125 5.671875,-4.796875 8.46875,-12.25 2.8125,-7.4375 2.8125,-17 0,-8.15625 -1.90625,-14.453125 -1.890625,-6.296875 -4.875,-10.4375 -2.984375,-4.125 -6.53125,-6.5 Q 50.046875,2.4375 45.046875,1.21875 40.046875,0 33.546875,0 Z m 9.46875,8.453125 h 15.28125 q 7.078125,0 11.109375,1.3125 4.03125,1.3125 6.421875,3.71875 3.375,3.359375 5.25,9.046875 1.875,5.6875 1.875,13.796875 0,11.234375 -3.6875,17.265625 -3.6875,6.03125 -8.953125,8.078125 -3.8125,1.46875 -12.25,1.46875 H 17.1875 Z"
       inkscape:connector-curvature="0"
       style="stroke-linecap:butt;stroke-linejoin:round" />
    <path
       id="ArialMT-43"
       d="m 58.796875,25.09375 9.46875,-2.390625 Q 65.28125,11.03125 57.546875,4.90625 49.8125,-1.21875 38.625,-1.21875 q -11.578125,0 -18.828125,4.703125 -7.25,4.71875 -11.03125,13.65625 -3.78125,8.9375 -3.78125,19.1875 0,11.1875 4.265625,19.5 4.28125,8.328125 12.15625,12.640625 7.890625,4.328125 17.359375,4.328125 10.75,0 18.0625,-5.46875 7.328125,-5.46875 10.21875,-15.375 L 57.71875,49.75 q -2.5,7.8125 -7.234375,11.375 -4.734375,3.578125 -11.90625,3.578125 -8.25,0 -13.796875,-3.96875 -5.546875,-3.953125 -7.796875,-10.625 Q 14.75,43.453125 14.75,36.375 q 0,-9.125 2.65625,-15.9375 2.65625,-6.8125 8.265625,-10.1875 5.625,-3.359375 12.171875,-3.359375 7.953125,0 13.46875,4.578125 5.53125,4.59375 7.484375,13.625 z"
       inkscape:connector-curvature="0"
       style="stroke-linecap:butt;stroke-linejoin:round" />
    <path
       id="ArialMT-52"
       d="M 7.859375,0 V 71.578125 H 39.59375 q 9.578125,0 14.546875,-1.9375 4.984375,-1.921875 7.96875,-6.8125 2.984375,-4.875 2.984375,-10.78125 0,-7.609375 -4.9375,-12.84375 Q 55.21875,33.984375 44.921875,32.5625 48.6875,30.765625 50.640625,29 54.78125,25.203125 58.5,19.484375 L 70.953125,0 H 59.03125 L 49.5625,14.890625 Q 45.40625,21.34375 42.71875,24.75 q -2.671875,3.421875 -4.796875,4.78125 -2.125,1.375 -4.328125,1.921875 -1.609375,0.328125 -5.265625,0.328125 h -11 V 0 Z m 9.46875,39.984375 h 20.375 q 6.484375,0 10.140625,1.34375 3.671875,1.34375 5.578125,4.296875 1.90625,2.953125 1.90625,6.421875 0,5.078125 -3.6875,8.34375 -3.6875,3.28125 -11.65625,3.28125 h -22.65625 z"
       inkscape:connector-curvature="0"
       style="stroke-linecap:butt;stroke-linejoin:round" />
    <path
       id="ArialMT-20"
       d=""
       inkscape:connector-curvature="0"
       style="stroke-linecap:butt;stroke-linejoin:round" />
    <path
       id="ArialMT-6f"
       d="m 3.328125,25.921875 q 0,14.40625 8,21.34375 6.6875,5.765625 16.3125,5.765625 10.6875,0 17.46875,-7.015625 6.796875,-7 6.796875,-19.359375 0,-10 -3,-15.75 -3,-5.734375 -8.75,-8.90625 Q 34.421875,-1.171875 27.640625,-1.171875 16.75,-1.171875 10.03125,5.8125 3.328125,12.796875 3.328125,25.921875 Z m 9.03125,0 q 0,-9.953125 4.34375,-14.90625 4.34375,-4.953125 10.9375,-4.953125 6.546875,0 10.890625,4.96875 4.34375,4.984375 4.34375,15.1875 0,9.625 -4.375,14.578125 Q 34.125,45.75 27.640625,45.75 q -6.59375,0 -10.9375,-4.9375 -4.34375,-4.921875 -4.34375,-14.890625 z"
       inkscape:connector-curvature="0"
       style="stroke-linecap:butt;stroke-linejoin:round" />
    <path
       id="ArialMT-6e"
       d="M 6.59375,0 V 51.859375 H 14.5 v -7.375 q 5.71875,8.546875 16.5,8.546875 4.6875,0 8.625,-1.6875 3.9375,-1.6875 5.890625,-4.421875 Q 47.46875,44.1875 48.25,40.4375 48.734375,37.984375 48.734375,31.890625 V 0 H 39.9375 v 31.546875 q 0,5.375 -1.03125,8.03125 -1.015625,2.65625 -3.625,4.234375 -2.609375,1.59375 -6.125,1.59375 -5.625,0 -9.703125,-3.5625 Q 15.375,38.28125 15.375,28.328125 V 0 Z"
       inkscape:connector-curvature="0"
       style="stroke-linecap:butt;stroke-linejoin:round" />
    <path
       id="ArialMT-72"
       d="m 6.5,0 v 51.859375 h 7.90625 V 44 Q 17.4375,49.515625 20,51.265625 q 2.5625,1.765625 5.640625,1.765625 4.4375,0 9.03125,-2.828125 l -3.03125,-8.15625 q -3.21875,1.90625 -6.4375,1.90625 -2.890625,0 -5.1875,-1.734375 -2.296875,-1.734375 -3.265625,-4.8125 -1.46875,-4.6875 -1.46875,-10.25 V 0 Z"
       inkscape:connector-curvature="0"
       style="stroke-linecap:butt;stroke-linejoin:round" />
    <path
       style="stroke:#000000;stroke-width:0.80000001;stroke-linecap:butt;stroke-linejoin:round"
       id="m79bfedea83"
       d="M 0,0 H 3.5"
       inkscape:connector-curvature="0" />
    <clipPath
       id="p4bfefae6e3"
       style="stroke-linecap:butt;stroke-linejoin:round">
      <rect
         id="rect6534"
         y="28.564125"
         x="27.003439"
         width="624.96002"
         height="217.44"
         style="stroke-linecap:butt;stroke-linejoin:round" />
    </clipPath>
    <clipPath
       id="pd35fd944c1"
       style="stroke-linecap:butt;stroke-linejoin:round">
      <rect
         id="rect6537"
         y="28.564125"
         x="691.02344"
         width="14.496"
         height="217.44"
         style="stroke-linecap:butt;stroke-linejoin:round" />
    </clipPath>
    <style
       id="style8889"
       type="text/css">
*{stroke-linecap:butt;stroke-linejoin:round;}
  </style>
    <path
       style="stroke:#000000;stroke-width:0.80000001;stroke-linecap:butt;stroke-linejoin:round"
       id="m8229134cf9"
       d="M 0,0 V 3.5"
       inkscape:connector-curvature="0" />
    <path
       id="ArialMT-30-9"
       d="m 4.15625,35.296875 q 0,12.703125 2.609375,20.4375 2.609375,7.75 7.75,11.9375 5.15625,4.203125 12.96875,4.203125 5.765625,0 10.109375,-2.328125 4.34375,-2.3125 7.171875,-6.6875 Q 47.609375,58.5 49.21875,52.21875 q 1.609375,-6.265625 1.609375,-16.921875 0,-12.59375 -2.59375,-20.328125 Q 45.65625,7.234375 40.5,3 35.359375,-1.21875 27.484375,-1.21875 q -10.34375,0 -16.25,7.421875 -7.078125,8.9375 -7.078125,29.09375 z m 9.03125,0 q 0,-17.625 4.125,-23.46875 Q 21.4375,6 27.484375,6 q 6.0625,0 10.1875,5.859375 4.125,5.859375 4.125,23.4375 0,17.6875 -4.125,23.484375 -4.125,5.8125 -10.28125,5.8125 -6.046875,0 -9.671875,-5.125 Q 13.1875,52.9375 13.1875,35.296875 Z"
       inkscape:connector-curvature="0"
       style="stroke-linecap:butt;stroke-linejoin:round" />
    <path
       id="ArialMT-31-2"
       d="m 37.25,0 h -8.78125 v 56 q -3.171875,-3.015625 -8.328125,-6.046875 -5.15625,-3.03125 -9.25,-4.546875 v 8.5 q 7.375,3.46875 12.890625,8.390625 5.515625,4.9375 7.8125,9.578125 H 37.25 Z"
       inkscape:connector-curvature="0"
       style="stroke-linecap:butt;stroke-linejoin:round" />
    <path
       id="ArialMT-32-9"
       d="M 50.34375,8.453125 V 0 H 3.03125 Q 2.9375,3.171875 4.046875,6.109375 5.859375,10.9375 9.828125,15.625 13.8125,20.3125 21.34375,26.46875 q 11.671875,9.5625 15.765625,15.15625 4.109375,5.59375 4.109375,10.578125 0,5.21875 -3.75,8.796875 -3.734375,3.59375 -9.734375,3.59375 -6.34375,0 -10.15625,-3.8125 Q 13.765625,56.984375 13.71875,50.25 L 4.6875,51.171875 q 0.921875,10.109375 6.96875,15.40625 6.0625,5.296875 16.28125,5.296875 10.296875,0 16.296875,-5.71875 Q 50.25,60.453125 50.25,52 50.25,47.703125 48.484375,43.546875 46.734375,39.40625 42.65625,34.8125 38.578125,30.21875 29.109375,22.21875 21.1875,15.578125 18.9375,13.203125 q -2.234375,-2.359375 -3.703125,-4.75 z"
       inkscape:connector-curvature="0"
       style="stroke-linecap:butt;stroke-linejoin:round" />
    <path
       id="ArialMT-33-9"
       d="m 4.203125,18.890625 8.78125,1.171875 Q 14.5,12.59375 18.140625,9.296875 21.78125,6 27,6 33.203125,6 37.46875,10.296875 41.75,14.59375 41.75,20.953125 q 0,6.046875 -3.953125,9.96875 -3.953125,3.9375 -10.0625,3.9375 -2.484375,0 -6.203125,-0.96875 l 0.984375,7.71875 Q 23.390625,41.5 23.921875,41.5 q 5.625,0 10.109375,2.921875 4.5,2.9375 4.5,9.046875 0,4.828125 -3.28125,8 -3.265625,3.1875 -8.4375,3.1875 -5.125,0 -8.546875,-3.234375 -3.421875,-3.21875 -4.390625,-9.65625 l -8.796875,1.5625 q 1.609375,8.828125 7.3125,13.6875 5.71875,4.859375 14.21875,4.859375 5.859375,0 10.78125,-2.515625 4.9375,-2.515625 7.546875,-6.859375 2.625,-4.34375 2.625,-9.234375 0,-4.625 -2.5,-8.4375 -2.484375,-3.8125 -7.359375,-6.0625 6.34375,-1.453125 9.859375,-6.078125 3.515625,-4.609375 3.515625,-11.546875 0,-9.375 -6.84375,-15.890625 -6.828125,-6.515625 -17.28125,-6.515625 -9.421875,0 -15.65625,5.609375 -6.21875,5.625 -7.09375,14.546875 z"
       inkscape:connector-curvature="0"
       style="stroke-linecap:butt;stroke-linejoin:round" />
    <path
       id="ArialMT-34-3"
       d="m 32.328125,0 v 17.140625 h -31.0625 v 8.0625 l 32.671875,46.375 h 7.171875 v -46.375 h 9.671875 v -8.0625 H 41.109375 V 0 Z m 0,25.203125 V 57.46875 L 9.90625,25.203125 Z"
       inkscape:connector-curvature="0"
       style="stroke-linecap:butt;stroke-linejoin:round" />
    <path
       id="ArialMT-35-5"
       d="M 4.15625,18.75 13.375,19.53125 Q 14.40625,12.796875 18.140625,9.390625 21.875,6 27.15625,6 33.5,6 37.890625,10.78125 42.28125,15.578125 42.28125,23.484375 42.28125,31 38.0625,35.34375 33.84375,39.703125 27,39.703125 q -4.25,0 -7.671875,-1.9375 -3.40625,-1.921875 -5.359375,-5 l -8.25,1.078125 6.921875,36.765625 H 48.25 v -8.40625 H 19.671875 L 15.828125,42.96875 q 6.4375,4.5 13.515625,4.5 9.375,0 15.8125,-6.5 6.453125,-6.5 6.453125,-16.703125 0,-9.71875 -5.65625,-16.796875 -6.890625,-8.6875 -18.796875,-8.6875 -9.765625,0 -15.953125,5.46875 Q 5.03125,9.71875 4.15625,18.75 Z"
       inkscape:connector-curvature="0"
       style="stroke-linecap:butt;stroke-linejoin:round" />
    <path
       id="ArialMT-36-7"
       d="M 49.75,54.046875 41.015625,53.375 q -1.171875,5.171875 -3.3125,7.515625 -3.578125,3.765625 -8.796875,3.765625 -4.203125,0 -7.375,-2.34375 Q 17.390625,59.28125 14.984375,53.46875 12.59375,47.65625 12.5,36.921875 15.671875,41.75 20.265625,44.09375 q 4.59375,2.34375 9.625,2.34375 8.78125,0 14.953125,-6.46875 Q 51.03125,33.5 51.03125,23.25 51.03125,16.5 48.125,10.71875 45.21875,4.9375 40.140625,1.859375 35.0625,-1.21875 28.609375,-1.21875 17.625,-1.21875 10.6875,6.859375 3.765625,14.9375 3.765625,33.5 q 0,20.75 7.65625,30.171875 6.6875,8.203125 18.015625,8.203125 8.453125,0 13.84375,-4.734375 Q 48.6875,62.40625 49.75,54.046875 Z M 13.875,23.1875 q 0,-4.53125 1.921875,-8.6875 Q 17.71875,10.359375 21.1875,8.171875 24.65625,6 28.46875,6 q 5.5625,0 9.5625,4.484375 4.015625,4.5 4.015625,12.21875 0,7.421875 -3.96875,11.6875 -3.953125,4.28125 -9.953125,4.28125 -5.953125,0 -10.109375,-4.28125 Q 13.875,30.125 13.875,23.1875 Z"
       inkscape:connector-curvature="0"
       style="stroke-linecap:butt;stroke-linejoin:round" />
    <path
       id="ArialMT-37-9"
       d="m 4.734375,62.203125 v 8.453125 h 46.34375 V 63.8125 Q 44.234375,56.546875 37.515625,44.484375 30.8125,32.421875 27.15625,19.671875 24.515625,10.6875 23.78125,0 H 14.75 q 0.140625,8.453125 3.3125,20.40625 3.171875,11.96875 9.109375,23.078125 5.9375,11.109375 12.625,18.71875 z"
       inkscape:connector-curvature="0"
       style="stroke-linecap:butt;stroke-linejoin:round" />
    <path
       id="ArialMT-38-2"
       d="m 17.671875,38.8125 q -5.46875,2.015625 -8.109375,5.71875 -2.625,3.71875 -2.625,8.890625 0,7.8125 5.609375,13.125 5.625,5.328125 14.9375,5.328125 9.375,0 15.09375,-5.453125 5.71875,-5.4375 5.71875,-13.25 0,-4.984375 -2.625,-8.671875 Q 43.0625,40.828125 37.75,38.8125 q 6.59375,-2.140625 10.03125,-6.9375 3.4375,-4.78125 3.4375,-11.421875 0,-9.171875 -6.5,-15.421875 -6.484375,-6.25 -17.078125,-6.25 -10.59375,0 -17.09375,6.265625 -6.5,6.28125 -6.5,15.65625 0,6.984375 3.546875,11.6875 3.546875,4.71875 10.078125,6.421875 z m -1.75,14.90625 q 0,-5.078125 3.265625,-8.3125 3.28125,-3.21875 8.5,-3.21875 5.078125,0 8.328125,3.1875 3.25,3.203125 3.25,7.84375 0,4.84375 -3.359375,8.140625 -3.34375,3.296875 -8.3125,3.296875 -5.03125,0 -8.359375,-3.234375 -3.3125,-3.21875 -3.3125,-7.703125 z M 13.09375,20.65625 q 0,-3.765625 1.78125,-7.28125 Q 16.65625,9.859375 20.171875,7.921875 23.6875,6 27.734375,6 34.03125,6 38.125,10.046875 q 4.109375,4.0625 4.109375,10.3125 0,6.34375 -4.21875,10.5 -4.21875,4.15625 -10.578125,4.15625 -6.203125,0 -10.28125,-4.109375 -4.0625,-4.09375 -4.0625,-10.25 z"
       inkscape:connector-curvature="0"
       style="stroke-linecap:butt;stroke-linejoin:round" />
    <path
       id="ArialMT-39-5"
       d="m 5.46875,16.546875 8.453125,0.78125 Q 14.984375,11.375 18.015625,8.6875 21.046875,6 25.78125,6 q 4.046875,0 7.09375,1.859375 3.0625,1.859375 5.015625,4.953125 1.953125,3.109375 3.265625,8.375 1.328125,5.28125 1.328125,10.75 0,0.578125 -0.04687,1.75 Q 39.79688,29.5 35.23438,26.875 q -4.5625,-2.609375 -9.890625,-2.609375 -8.890625,0 -15.046875,6.4375 -6.140625,6.453125 -6.140625,17 0,10.890625 6.421875,17.53125 Q 17,71.875 26.65625,71.875 q 6.984375,0 12.765625,-3.765625 5.796875,-3.75 8.796875,-10.71875 3,-6.953125 3,-20.140625 0,-13.71875 -2.984375,-21.84375 -2.96875,-8.125 -8.859375,-12.375 -5.875,-4.25 -13.78125,-4.25 -8.40625,0 -13.734375,4.65625 -5.3125,4.671875 -6.390625,13.109375 z m 35.984375,31.59375 q 0,7.578125 -4.03125,12.015625 -4.015625,4.4375 -9.6875,4.4375 -5.859375,0 -10.203125,-4.78125 -4.34375,-4.78125 -4.34375,-12.40625 0,-6.828125 4.125,-11.109375 4.125,-4.265625 10.171875,-4.265625 6.109375,0 10.03125,4.265625 3.9375,4.28125 3.9375,11.84375 z"
       inkscape:connector-curvature="0"
       style="stroke-linecap:butt;stroke-linejoin:round" />
    <path
       style="stroke:#000000;stroke-width:0.80000001;stroke-linecap:butt;stroke-linejoin:round"
       id="m290c7f70cb"
       d="M 0,0 H -3.5"
       inkscape:connector-curvature="0" />
    <path
       id="ArialMT-44-5"
       d="M 7.71875,0 V 71.578125 H 32.375 q 8.34375,0 12.75,-1.015625 6.140625,-1.421875 10.484375,-5.125 5.671875,-4.796875 8.46875,-12.25 2.8125,-7.4375 2.8125,-17 0,-8.15625 -1.90625,-14.453125 -1.890625,-6.296875 -4.875,-10.4375 -2.984375,-4.125 -6.53125,-6.5 Q 50.046875,2.4375 45.046875,1.21875 40.046875,0 33.546875,0 Z m 9.46875,8.453125 h 15.28125 q 7.078125,0 11.109375,1.3125 4.03125,1.3125 6.421875,3.71875 3.375,3.359375 5.25,9.046875 1.875,5.6875 1.875,13.796875 0,11.234375 -3.6875,17.265625 -3.6875,6.03125 -8.953125,8.078125 -3.8125,1.46875 -12.25,1.46875 H 17.1875 Z"
       inkscape:connector-curvature="0"
       style="stroke-linecap:butt;stroke-linejoin:round" />
    <path
       id="ArialMT-43-8"
       d="m 58.796875,25.09375 9.46875,-2.390625 Q 65.28125,11.03125 57.546875,4.90625 49.8125,-1.21875 38.625,-1.21875 q -11.578125,0 -18.828125,4.703125 -7.25,4.71875 -11.03125,13.65625 -3.78125,8.9375 -3.78125,19.1875 0,11.1875 4.265625,19.5 4.28125,8.328125 12.15625,12.640625 7.890625,4.328125 17.359375,4.328125 10.75,0 18.0625,-5.46875 7.328125,-5.46875 10.21875,-15.375 L 57.71875,49.75 q -2.5,7.8125 -7.234375,11.375 -4.734375,3.578125 -11.90625,3.578125 -8.25,0 -13.796875,-3.96875 -5.546875,-3.953125 -7.796875,-10.625 Q 14.75,43.453125 14.75,36.375 q 0,-9.125 2.65625,-15.9375 2.65625,-6.8125 8.265625,-10.1875 5.625,-3.359375 12.171875,-3.359375 7.953125,0 13.46875,4.578125 5.53125,4.59375 7.484375,13.625 z"
       inkscape:connector-curvature="0"
       style="stroke-linecap:butt;stroke-linejoin:round" />
    <path
       id="ArialMT-52-2"
       d="M 7.859375,0 V 71.578125 H 39.59375 q 9.578125,0 14.546875,-1.9375 4.984375,-1.921875 7.96875,-6.8125 2.984375,-4.875 2.984375,-10.78125 0,-7.609375 -4.9375,-12.84375 Q 55.21875,33.984375 44.921875,32.5625 48.6875,30.765625 50.640625,29 54.78125,25.203125 58.5,19.484375 L 70.953125,0 H 59.03125 L 49.5625,14.890625 Q 45.40625,21.34375 42.71875,24.75 q -2.671875,3.421875 -4.796875,4.78125 -2.125,1.375 -4.328125,1.921875 -1.609375,0.328125 -5.265625,0.328125 h -11 V 0 Z m 9.46875,39.984375 h 20.375 q 6.484375,0 10.140625,1.34375 3.671875,1.34375 5.578125,4.296875 1.90625,2.953125 1.90625,6.421875 0,5.078125 -3.6875,8.34375 -3.6875,3.28125 -11.65625,3.28125 h -22.65625 z"
       inkscape:connector-curvature="0"
       style="stroke-linecap:butt;stroke-linejoin:round" />
    <path
       id="ArialMT-20-9"
       d=""
       inkscape:connector-curvature="0"
       style="stroke-linecap:butt;stroke-linejoin:round" />
    <path
       id="ArialMT-41"
       d="M -0.140625,0 27.34375,71.578125 H 37.546875 L 66.84375,0 H 56.0625 L 47.703125,21.6875 H 17.78125 L 9.90625,0 Z m 20.65625,29.390625 H 44.78125 L 37.3125,49.21875 Q 33.890625,58.25 32.234375,64.0625 30.859375,57.171875 28.375,50.390625 Z"
       inkscape:connector-curvature="0"
       style="stroke-linecap:butt;stroke-linejoin:round" />
    <path
       id="ArialMT-63"
       d="m 40.4375,19 8.640625,-1.125 Q 47.65625,8.9375 41.8125,3.875 35.984375,-1.171875 27.484375,-1.171875 16.84375,-1.171875 10.375,5.78125 3.90625,12.75 3.90625,25.734375 q 0,8.390625 2.78125,14.6875 2.78125,6.3125 8.46875,9.453125 5.6875,3.15625 12.390625,3.15625 8.4375,0 13.8125,-4.28125 5.375,-4.265625 6.890625,-12.125 l -8.546875,-1.328125 q -1.21875,5.234375 -4.328125,7.859375 -3.09375,2.640625 -7.5,2.640625 -6.640625,0 -10.796875,-4.765625 -4.140625,-4.75 -4.140625,-15.046875 0,-10.453125 4,-15.1875 Q 20.953125,6.0625 27.390625,6.0625 32.5625,6.0625 36.03125,9.234375 39.5,12.40625 40.4375,19 Z"
       inkscape:connector-curvature="0"
       style="stroke-linecap:butt;stroke-linejoin:round" />
    <path
       id="ArialMT-65"
       d="m 42.09375,16.703125 9.078125,-1.125 Q 49.03125,7.625 43.21875,3.21875 37.40625,-1.171875 28.375,-1.171875 q -11.375,0 -18.046875,7 -6.671875,7.015625 -6.671875,19.65625 0,13.09375 6.734375,20.3125 6.75,7.234375 17.484375,7.234375 10.40625,0 17,-7.078125 6.59375,-7.078125 6.59375,-19.921875 0,-0.78125 -0.04687,-2.34375 H 12.75 q 0.484375,-8.546875 4.828125,-13.09375 4.34375,-4.53125 10.84375,-4.53125 4.828125,0 8.25,2.53125 3.421875,2.546875 5.421875,8.109375 z M 13.234375,30.90625 H 42.1875 q -0.578125,6.546875 -3.3125,9.8125 -4.203125,5.078125 -10.890625,5.078125 -6.0625,0 -10.1875,-4.046875 -4.125,-4.046875 -4.5625,-10.84375 z"
       inkscape:connector-curvature="0"
       style="stroke-linecap:butt;stroke-linejoin:round" />
    <path
       id="ArialMT-70"
       d="m 6.59375,-19.875 v 71.734375 h 8 V 45.125 Q 17.4375,49.078125 21,51.046875 q 3.5625,1.984375 8.640625,1.984375 6.640625,0 11.71875,-3.421875 5.078125,-3.421875 7.65625,-9.65625 2.59375,-6.21875 2.59375,-13.640625 0,-7.953125 -2.859375,-14.328125 Q 45.90625,5.609375 40.453125,2.21875 35.015625,-1.171875 29,-1.171875 q -4.390625,0 -7.890625,1.859375 Q 17.625,2.546875 15.375,5.375 v -25.25 z m 7.953125,45.515625 q 0,-10.015625 4.046875,-14.796875 4.0625,-4.78125 9.828125,-4.78125 5.859375,0 10.03125,4.953125 Q 42.625,15.96875 42.625,26.375 q 0,9.90625 -4.078125,14.828125 -4.078125,4.9375 -9.734375,4.9375 -5.625,0 -9.953125,-5.25 -4.3125,-5.25 -4.3125,-15.25 z"
       inkscape:connector-curvature="0"
       style="stroke-linecap:butt;stroke-linejoin:round" />
    <path
       id="ArialMT-74"
       d="M 25.78125,7.859375 27.046875,0.09375 Q 23.34375,-0.6875 20.40625,-0.6875 15.625,-0.6875 12.984375,0.828125 10.359375,2.34375 9.28125,4.8125 8.203125,7.28125 8.203125,15.1875 v 29.828125 h -6.4375 v 6.84375 h 6.4375 v 12.84375 L 16.9375,69.96875 V 51.859375 h 8.84375 v -6.84375 H 16.9375 v -30.3125 q 0,-3.765625 0.46875,-4.84375 0.46875,-1.0625 1.515625,-1.703125 1.046875,-0.640625 3,-0.640625 1.46875,0 3.859375,0.34375 z"
       inkscape:connector-curvature="0"
       style="stroke-linecap:butt;stroke-linejoin:round" />
    <path
       id="ArialMT-6f-8"
       d="m 3.328125,25.921875 q 0,14.40625 8,21.34375 6.6875,5.765625 16.3125,5.765625 10.6875,0 17.46875,-7.015625 6.796875,-7 6.796875,-19.359375 0,-10 -3,-15.75 -3,-5.734375 -8.75,-8.90625 Q 34.421875,-1.171875 27.640625,-1.171875 16.75,-1.171875 10.03125,5.8125 3.328125,12.796875 3.328125,25.921875 Z m 9.03125,0 q 0,-9.953125 4.34375,-14.90625 4.34375,-4.953125 10.9375,-4.953125 6.546875,0 10.890625,4.96875 4.34375,4.984375 4.34375,15.1875 0,9.625 -4.375,14.578125 Q 34.125,45.75 27.640625,45.75 q -6.59375,0 -10.9375,-4.9375 -4.34375,-4.921875 -4.34375,-14.890625 z"
       inkscape:connector-curvature="0"
       style="stroke-linecap:butt;stroke-linejoin:round" />
    <path
       id="ArialMT-72-2"
       d="m 6.5,0 v 51.859375 h 7.90625 V 44 Q 17.4375,49.515625 20,51.265625 q 2.5625,1.765625 5.640625,1.765625 4.4375,0 9.03125,-2.828125 l -3.03125,-8.15625 q -3.21875,1.90625 -6.4375,1.90625 -2.890625,0 -5.1875,-1.734375 -2.296875,-1.734375 -3.265625,-4.8125 -1.46875,-4.6875 -1.46875,-10.25 V 0 Z"
       inkscape:connector-curvature="0"
       style="stroke-linecap:butt;stroke-linejoin:round" />
    <path
       style="stroke:#000000;stroke-width:0.80000001;stroke-linecap:butt;stroke-linejoin:round"
       id="m32506107f2"
       d="M 0,0 H 3.5"
       inkscape:connector-curvature="0" />
    <clipPath
       id="p4382d051bb"
       style="stroke-linecap:butt;stroke-linejoin:round">
      <rect
         id="rect9755"
         y="28.768875"
         x="27.003439"
         width="624.96002"
         height="217.44"
         style="stroke-linecap:butt;stroke-linejoin:round" />
    </clipPath>
    <clipPath
       id="p63894d24fd"
       style="stroke-linecap:butt;stroke-linejoin:round">
      <rect
         id="rect9758"
         y="28.768875"
         x="691.02344"
         width="14.496"
         height="217.44"
         style="stroke-linecap:butt;stroke-linejoin:round" />
    </clipPath>
    <style
       id="style14269"
       type="text/css">
*{stroke-linecap:butt;stroke-linejoin:round;}
  </style>
    <path
       style="stroke:#000000;stroke-width:0.80000001;stroke-linecap:butt;stroke-linejoin:round"
       id="ma628788921"
       d="M 0,0 V 3.5"
       inkscape:connector-curvature="0" />
    <path
       id="ArialMT-30-99"
       d="m 4.15625,35.296875 q 0,12.703125 2.609375,20.4375 2.609375,7.75 7.75,11.9375 5.15625,4.203125 12.96875,4.203125 5.765625,0 10.109375,-2.328125 4.34375,-2.3125 7.171875,-6.6875 Q 47.609375,58.5 49.21875,52.21875 q 1.609375,-6.265625 1.609375,-16.921875 0,-12.59375 -2.59375,-20.328125 Q 45.65625,7.234375 40.5,3 35.359375,-1.21875 27.484375,-1.21875 q -10.34375,0 -16.25,7.421875 -7.078125,8.9375 -7.078125,29.09375 z m 9.03125,0 q 0,-17.625 4.125,-23.46875 Q 21.4375,6 27.484375,6 q 6.0625,0 10.1875,5.859375 4.125,5.859375 4.125,23.4375 0,17.6875 -4.125,23.484375 -4.125,5.8125 -10.28125,5.8125 -6.046875,0 -9.671875,-5.125 Q 13.1875,52.9375 13.1875,35.296875 Z"
       inkscape:connector-curvature="0"
       style="stroke-linecap:butt;stroke-linejoin:round" />
    <path
       id="ArialMT-31-9"
       d="m 37.25,0 h -8.78125 v 56 q -3.171875,-3.015625 -8.328125,-6.046875 -5.15625,-3.03125 -9.25,-4.546875 v 8.5 q 7.375,3.46875 12.890625,8.390625 5.515625,4.9375 7.8125,9.578125 H 37.25 Z"
       inkscape:connector-curvature="0"
       style="stroke-linecap:butt;stroke-linejoin:round" />
    <path
       id="ArialMT-32-3"
       d="M 50.34375,8.453125 V 0 H 3.03125 Q 2.9375,3.171875 4.046875,6.109375 5.859375,10.9375 9.828125,15.625 13.8125,20.3125 21.34375,26.46875 q 11.671875,9.5625 15.765625,15.15625 4.109375,5.59375 4.109375,10.578125 0,5.21875 -3.75,8.796875 -3.734375,3.59375 -9.734375,3.59375 -6.34375,0 -10.15625,-3.8125 Q 13.765625,56.984375 13.71875,50.25 L 4.6875,51.171875 q 0.921875,10.109375 6.96875,15.40625 6.0625,5.296875 16.28125,5.296875 10.296875,0 16.296875,-5.71875 Q 50.25,60.453125 50.25,52 50.25,47.703125 48.484375,43.546875 46.734375,39.40625 42.65625,34.8125 38.578125,30.21875 29.109375,22.21875 21.1875,15.578125 18.9375,13.203125 q -2.234375,-2.359375 -3.703125,-4.75 z"
       inkscape:connector-curvature="0"
       style="stroke-linecap:butt;stroke-linejoin:round" />
    <path
       id="ArialMT-33-3"
       d="m 4.203125,18.890625 8.78125,1.171875 Q 14.5,12.59375 18.140625,9.296875 21.78125,6 27,6 33.203125,6 37.46875,10.296875 41.75,14.59375 41.75,20.953125 q 0,6.046875 -3.953125,9.96875 -3.953125,3.9375 -10.0625,3.9375 -2.484375,0 -6.203125,-0.96875 l 0.984375,7.71875 Q 23.390625,41.5 23.921875,41.5 q 5.625,0 10.109375,2.921875 4.5,2.9375 4.5,9.046875 0,4.828125 -3.28125,8 -3.265625,3.1875 -8.4375,3.1875 -5.125,0 -8.546875,-3.234375 -3.421875,-3.21875 -4.390625,-9.65625 l -8.796875,1.5625 q 1.609375,8.828125 7.3125,13.6875 5.71875,4.859375 14.21875,4.859375 5.859375,0 10.78125,-2.515625 4.9375,-2.515625 7.546875,-6.859375 2.625,-4.34375 2.625,-9.234375 0,-4.625 -2.5,-8.4375 -2.484375,-3.8125 -7.359375,-6.0625 6.34375,-1.453125 9.859375,-6.078125 3.515625,-4.609375 3.515625,-11.546875 0,-9.375 -6.84375,-15.890625 -6.828125,-6.515625 -17.28125,-6.515625 -9.421875,0 -15.65625,5.609375 -6.21875,5.625 -7.09375,14.546875 z"
       inkscape:connector-curvature="0"
       style="stroke-linecap:butt;stroke-linejoin:round" />
    <path
       id="ArialMT-34-7"
       d="m 32.328125,0 v 17.140625 h -31.0625 v 8.0625 l 32.671875,46.375 h 7.171875 v -46.375 h 9.671875 v -8.0625 H 41.109375 V 0 Z m 0,25.203125 V 57.46875 L 9.90625,25.203125 Z"
       inkscape:connector-curvature="0"
       style="stroke-linecap:butt;stroke-linejoin:round" />
    <path
       id="ArialMT-35-7"
       d="M 4.15625,18.75 13.375,19.53125 Q 14.40625,12.796875 18.140625,9.390625 21.875,6 27.15625,6 33.5,6 37.890625,10.78125 42.28125,15.578125 42.28125,23.484375 42.28125,31 38.0625,35.34375 33.84375,39.703125 27,39.703125 q -4.25,0 -7.671875,-1.9375 -3.40625,-1.921875 -5.359375,-5 l -8.25,1.078125 6.921875,36.765625 H 48.25 v -8.40625 H 19.671875 L 15.828125,42.96875 q 6.4375,4.5 13.515625,4.5 9.375,0 15.8125,-6.5 6.453125,-6.5 6.453125,-16.703125 0,-9.71875 -5.65625,-16.796875 -6.890625,-8.6875 -18.796875,-8.6875 -9.765625,0 -15.953125,5.46875 Q 5.03125,9.71875 4.15625,18.75 Z"
       inkscape:connector-curvature="0"
       style="stroke-linecap:butt;stroke-linejoin:round" />
    <path
       id="ArialMT-36-3"
       d="M 49.75,54.046875 41.015625,53.375 q -1.171875,5.171875 -3.3125,7.515625 -3.578125,3.765625 -8.796875,3.765625 -4.203125,0 -7.375,-2.34375 Q 17.390625,59.28125 14.984375,53.46875 12.59375,47.65625 12.5,36.921875 15.671875,41.75 20.265625,44.09375 q 4.59375,2.34375 9.625,2.34375 8.78125,0 14.953125,-6.46875 Q 51.03125,33.5 51.03125,23.25 51.03125,16.5 48.125,10.71875 45.21875,4.9375 40.140625,1.859375 35.0625,-1.21875 28.609375,-1.21875 17.625,-1.21875 10.6875,6.859375 3.765625,14.9375 3.765625,33.5 q 0,20.75 7.65625,30.171875 6.6875,8.203125 18.015625,8.203125 8.453125,0 13.84375,-4.734375 Q 48.6875,62.40625 49.75,54.046875 Z M 13.875,23.1875 q 0,-4.53125 1.921875,-8.6875 Q 17.71875,10.359375 21.1875,8.171875 24.65625,6 28.46875,6 q 5.5625,0 9.5625,4.484375 4.015625,4.5 4.015625,12.21875 0,7.421875 -3.96875,11.6875 -3.953125,4.28125 -9.953125,4.28125 -5.953125,0 -10.109375,-4.28125 Q 13.875,30.125 13.875,23.1875 Z"
       inkscape:connector-curvature="0"
       style="stroke-linecap:butt;stroke-linejoin:round" />
    <path
       id="ArialMT-37-2"
       d="m 4.734375,62.203125 v 8.453125 h 46.34375 V 63.8125 Q 44.234375,56.546875 37.515625,44.484375 30.8125,32.421875 27.15625,19.671875 24.515625,10.6875 23.78125,0 H 14.75 q 0.140625,8.453125 3.3125,20.40625 3.171875,11.96875 9.109375,23.078125 5.9375,11.109375 12.625,18.71875 z"
       inkscape:connector-curvature="0"
       style="stroke-linecap:butt;stroke-linejoin:round" />
    <path
       id="ArialMT-38-5"
       d="m 17.671875,38.8125 q -5.46875,2.015625 -8.109375,5.71875 -2.625,3.71875 -2.625,8.890625 0,7.8125 5.609375,13.125 5.625,5.328125 14.9375,5.328125 9.375,0 15.09375,-5.453125 5.71875,-5.4375 5.71875,-13.25 0,-4.984375 -2.625,-8.671875 Q 43.0625,40.828125 37.75,38.8125 q 6.59375,-2.140625 10.03125,-6.9375 3.4375,-4.78125 3.4375,-11.421875 0,-9.171875 -6.5,-15.421875 -6.484375,-6.25 -17.078125,-6.25 -10.59375,0 -17.09375,6.265625 -6.5,6.28125 -6.5,15.65625 0,6.984375 3.546875,11.6875 3.546875,4.71875 10.078125,6.421875 z m -1.75,14.90625 q 0,-5.078125 3.265625,-8.3125 3.28125,-3.21875 8.5,-3.21875 5.078125,0 8.328125,3.1875 3.25,3.203125 3.25,7.84375 0,4.84375 -3.359375,8.140625 -3.34375,3.296875 -8.3125,3.296875 -5.03125,0 -8.359375,-3.234375 -3.3125,-3.21875 -3.3125,-7.703125 z M 13.09375,20.65625 q 0,-3.765625 1.78125,-7.28125 Q 16.65625,9.859375 20.171875,7.921875 23.6875,6 27.734375,6 34.03125,6 38.125,10.046875 q 4.109375,4.0625 4.109375,10.3125 0,6.34375 -4.21875,10.5 -4.21875,4.15625 -10.578125,4.15625 -6.203125,0 -10.28125,-4.109375 -4.0625,-4.09375 -4.0625,-10.25 z"
       inkscape:connector-curvature="0"
       style="stroke-linecap:butt;stroke-linejoin:round" />
    <path
       id="ArialMT-39-6"
       d="m 5.46875,16.546875 8.453125,0.78125 Q 14.984375,11.375 18.015625,8.6875 21.046875,6 25.78125,6 q 4.046875,0 7.09375,1.859375 3.0625,1.859375 5.015625,4.953125 1.953125,3.109375 3.265625,8.375 1.328125,5.28125 1.328125,10.75 0,0.578125 -0.04687,1.75 Q 39.79688,29.5 35.23438,26.875 q -4.5625,-2.609375 -9.890625,-2.609375 -8.890625,0 -15.046875,6.4375 -6.140625,6.453125 -6.140625,17 0,10.890625 6.421875,17.53125 Q 17,71.875 26.65625,71.875 q 6.984375,0 12.765625,-3.765625 5.796875,-3.75 8.796875,-10.71875 3,-6.953125 3,-20.140625 0,-13.71875 -2.984375,-21.84375 -2.96875,-8.125 -8.859375,-12.375 -5.875,-4.25 -13.78125,-4.25 -8.40625,0 -13.734375,4.65625 -5.3125,4.671875 -6.390625,13.109375 z m 35.984375,31.59375 q 0,7.578125 -4.03125,12.015625 -4.015625,4.4375 -9.6875,4.4375 -5.859375,0 -10.203125,-4.78125 -4.34375,-4.78125 -4.34375,-12.40625 0,-6.828125 4.125,-11.109375 4.125,-4.265625 10.171875,-4.265625 6.109375,0 10.03125,4.265625 3.9375,4.28125 3.9375,11.84375 z"
       inkscape:connector-curvature="0"
       style="stroke-linecap:butt;stroke-linejoin:round" />
    <path
       style="stroke:#000000;stroke-width:0.80000001;stroke-linecap:butt;stroke-linejoin:round"
       id="mb586015208"
       d="M 0,0 H -3.5"
       inkscape:connector-curvature="0" />
    <path
       id="ArialMT-44-3"
       d="M 7.71875,0 V 71.578125 H 32.375 q 8.34375,0 12.75,-1.015625 6.140625,-1.421875 10.484375,-5.125 5.671875,-4.796875 8.46875,-12.25 2.8125,-7.4375 2.8125,-17 0,-8.15625 -1.90625,-14.453125 -1.890625,-6.296875 -4.875,-10.4375 -2.984375,-4.125 -6.53125,-6.5 Q 50.046875,2.4375 45.046875,1.21875 40.046875,0 33.546875,0 Z m 9.46875,8.453125 h 15.28125 q 7.078125,0 11.109375,1.3125 4.03125,1.3125 6.421875,3.71875 3.375,3.359375 5.25,9.046875 1.875,5.6875 1.875,13.796875 0,11.234375 -3.6875,17.265625 -3.6875,6.03125 -8.953125,8.078125 -3.8125,1.46875 -12.25,1.46875 H 17.1875 Z"
       inkscape:connector-curvature="0"
       style="stroke-linecap:butt;stroke-linejoin:round" />
    <path
       id="ArialMT-43-4"
       d="m 58.796875,25.09375 9.46875,-2.390625 Q 65.28125,11.03125 57.546875,4.90625 49.8125,-1.21875 38.625,-1.21875 q -11.578125,0 -18.828125,4.703125 -7.25,4.71875 -11.03125,13.65625 -3.78125,8.9375 -3.78125,19.1875 0,11.1875 4.265625,19.5 4.28125,8.328125 12.15625,12.640625 7.890625,4.328125 17.359375,4.328125 10.75,0 18.0625,-5.46875 7.328125,-5.46875 10.21875,-15.375 L 57.71875,49.75 q -2.5,7.8125 -7.234375,11.375 -4.734375,3.578125 -11.90625,3.578125 -8.25,0 -13.796875,-3.96875 -5.546875,-3.953125 -7.796875,-10.625 Q 14.75,43.453125 14.75,36.375 q 0,-9.125 2.65625,-15.9375 2.65625,-6.8125 8.265625,-10.1875 5.625,-3.359375 12.171875,-3.359375 7.953125,0 13.46875,4.578125 5.53125,4.59375 7.484375,13.625 z"
       inkscape:connector-curvature="0"
       style="stroke-linecap:butt;stroke-linejoin:round" />
    <path
       id="ArialMT-52-0"
       d="M 7.859375,0 V 71.578125 H 39.59375 q 9.578125,0 14.546875,-1.9375 4.984375,-1.921875 7.96875,-6.8125 2.984375,-4.875 2.984375,-10.78125 0,-7.609375 -4.9375,-12.84375 Q 55.21875,33.984375 44.921875,32.5625 48.6875,30.765625 50.640625,29 54.78125,25.203125 58.5,19.484375 L 70.953125,0 H 59.03125 L 49.5625,14.890625 Q 45.40625,21.34375 42.71875,24.75 q -2.671875,3.421875 -4.796875,4.78125 -2.125,1.375 -4.328125,1.921875 -1.609375,0.328125 -5.265625,0.328125 h -11 V 0 Z m 9.46875,39.984375 h 20.375 q 6.484375,0 10.140625,1.34375 3.671875,1.34375 5.578125,4.296875 1.90625,2.953125 1.90625,6.421875 0,5.078125 -3.6875,8.34375 -3.6875,3.28125 -11.65625,3.28125 h -22.65625 z"
       inkscape:connector-curvature="0"
       style="stroke-linecap:butt;stroke-linejoin:round" />
    <path
       id="ArialMT-20-6"
       d=""
       inkscape:connector-curvature="0"
       style="stroke-linecap:butt;stroke-linejoin:round" />
    <path
       id="ArialMT-2d"
       d="m 3.171875,21.484375 v 8.84375 h 27 v -8.84375 z"
       inkscape:connector-curvature="0"
       style="stroke-linecap:butt;stroke-linejoin:round" />
    <path
       id="ArialMT-53"
       d="m 4.5,23 8.921875,0.78125 q 0.640625,-5.375 2.953125,-8.8125 2.328125,-3.4375 7.203125,-5.5625 4.890625,-2.125 11,-2.125 5.40625,0 9.5625,1.609375 4.15625,1.609375 6.171875,4.40625 2.03125,2.8125 2.03125,6.140625 0,3.359375 -1.953125,5.875 -1.953125,2.515625 -6.4375,4.234375 -2.890625,1.125 -12.75,3.484375 -9.859375,2.375 -13.8125,4.46875 -5.140625,2.6875 -7.65625,6.65625 -2.5,3.984375 -2.5,8.921875 0,5.421875 3.0625,10.125 3.078125,4.71875 8.984375,7.15625 5.921875,2.4375 13.140625,2.4375 7.953125,0 14.03125,-2.5625 6.09375,-2.5625 9.359375,-7.546875 3.265625,-4.96875 3.515625,-11.265625 L 50.25,50.734375 q -0.734375,6.78125 -4.96875,10.25 -4.21875,3.46875 -12.46875,3.46875 -8.59375,0 -12.53125,-3.15625 -3.921875,-3.140625 -3.921875,-7.578125 0,-3.859375 2.78125,-6.359375 2.734375,-2.484375 14.28125,-5.09375 11.546875,-2.609375 15.84375,-4.5625 6.25,-2.890625 9.21875,-7.3125 2.984375,-4.40625 2.984375,-10.171875 0,-5.71875 -3.265625,-10.78125 -3.265625,-5.046875 -9.40625,-7.859375 -6.125,-2.796875 -13.78125,-2.796875 -9.71875,0 -16.296875,2.828125 Q 12.15625,4.4375 8.421875,10.125 4.6875,15.828125 4.5,23 Z"
       inkscape:connector-curvature="0"
       style="stroke-linecap:butt;stroke-linejoin:round" />
    <path
       id="ArialMT-50"
       d="m 7.71875,0 v 71.578125 h 27 q 7.125,0 10.890625,-0.671875 5.265625,-0.890625 8.828125,-3.359375 3.578125,-2.453125 5.75,-6.90625 2.171875,-4.4375 2.171875,-9.765625 0,-9.125 -5.8125,-15.453125 -5.8125,-6.3125 -21,-6.3125 H 17.1875 V 0 Z m 9.46875,37.546875 h 18.5 q 9.1875,0 13.046875,3.421875 3.859375,3.421875 3.859375,9.625 0,4.484375 -2.28125,7.671875 Q 48.046875,61.46875 44.34375,62.5 41.9375,63.140625 35.5,63.140625 H 17.1875 Z"
       inkscape:connector-curvature="0"
       style="stroke-linecap:butt;stroke-linejoin:round" />
    <path
       id="ArialMT-41-0"
       d="M -0.140625,0 27.34375,71.578125 H 37.546875 L 66.84375,0 H 56.0625 L 47.703125,21.6875 H 17.78125 L 9.90625,0 Z m 20.65625,29.390625 H 44.78125 L 37.3125,49.21875 Q 33.890625,58.25 32.234375,64.0625 30.859375,57.171875 28.375,50.390625 Z"
       inkscape:connector-curvature="0"
       style="stroke-linecap:butt;stroke-linejoin:round" />
    <path
       style="stroke:#000000;stroke-width:0.80000001;stroke-linecap:butt;stroke-linejoin:round"
       id="m5029745432"
       d="M 0,0 H 3.5"
       inkscape:connector-curvature="0" />
    <clipPath
       id="p8b66c06871"
       style="stroke-linecap:butt;stroke-linejoin:round">
      <rect
         id="rect15146"
         y="32.953876"
         x="30.661564"
         width="624.96002"
         height="217.44"
         style="stroke-linecap:butt;stroke-linejoin:round" />
    </clipPath>
    <clipPath
       id="p219c15dc6d"
       style="stroke-linecap:butt;stroke-linejoin:round">
      <rect
         id="rect15149"
         y="32.953876"
         x="694.68158"
         width="14.496"
         height="217.44"
         style="stroke-linecap:butt;stroke-linejoin:round" />
    </clipPath>
    <style
       id="style17501"
       type="text/css">
*{stroke-linecap:butt;stroke-linejoin:round;}
  </style>
    <path
       style="stroke:#000000;stroke-width:0.80000001;stroke-linecap:butt;stroke-linejoin:round"
       id="mb0eee6c98d"
       d="M 0,0 V 3.5"
       inkscape:connector-curvature="0" />
    <path
       id="ArialMT-30-1"
       d="m 4.15625,35.296875 q 0,12.703125 2.609375,20.4375 2.609375,7.75 7.75,11.9375 5.15625,4.203125 12.96875,4.203125 5.765625,0 10.109375,-2.328125 4.34375,-2.3125 7.171875,-6.6875 Q 47.609375,58.5 49.21875,52.21875 q 1.609375,-6.265625 1.609375,-16.921875 0,-12.59375 -2.59375,-20.328125 Q 45.65625,7.234375 40.5,3 35.359375,-1.21875 27.484375,-1.21875 q -10.34375,0 -16.25,7.421875 -7.078125,8.9375 -7.078125,29.09375 z m 9.03125,0 q 0,-17.625 4.125,-23.46875 Q 21.4375,6 27.484375,6 q 6.0625,0 10.1875,5.859375 4.125,5.859375 4.125,23.4375 0,17.6875 -4.125,23.484375 -4.125,5.8125 -10.28125,5.8125 -6.046875,0 -9.671875,-5.125 Q 13.1875,52.9375 13.1875,35.296875 Z"
       inkscape:connector-curvature="0"
       style="stroke-linecap:butt;stroke-linejoin:round" />
    <path
       id="ArialMT-31-7"
       d="m 37.25,0 h -8.78125 v 56 q -3.171875,-3.015625 -8.328125,-6.046875 -5.15625,-3.03125 -9.25,-4.546875 v 8.5 q 7.375,3.46875 12.890625,8.390625 5.515625,4.9375 7.8125,9.578125 H 37.25 Z"
       inkscape:connector-curvature="0"
       style="stroke-linecap:butt;stroke-linejoin:round" />
    <path
       id="ArialMT-32-2"
       d="M 50.34375,8.453125 V 0 H 3.03125 Q 2.9375,3.171875 4.046875,6.109375 5.859375,10.9375 9.828125,15.625 13.8125,20.3125 21.34375,26.46875 q 11.671875,9.5625 15.765625,15.15625 4.109375,5.59375 4.109375,10.578125 0,5.21875 -3.75,8.796875 -3.734375,3.59375 -9.734375,3.59375 -6.34375,0 -10.15625,-3.8125 Q 13.765625,56.984375 13.71875,50.25 L 4.6875,51.171875 q 0.921875,10.109375 6.96875,15.40625 6.0625,5.296875 16.28125,5.296875 10.296875,0 16.296875,-5.71875 Q 50.25,60.453125 50.25,52 50.25,47.703125 48.484375,43.546875 46.734375,39.40625 42.65625,34.8125 38.578125,30.21875 29.109375,22.21875 21.1875,15.578125 18.9375,13.203125 q -2.234375,-2.359375 -3.703125,-4.75 z"
       inkscape:connector-curvature="0"
       style="stroke-linecap:butt;stroke-linejoin:round" />
    <path
       id="ArialMT-33-8"
       d="m 4.203125,18.890625 8.78125,1.171875 Q 14.5,12.59375 18.140625,9.296875 21.78125,6 27,6 33.203125,6 37.46875,10.296875 41.75,14.59375 41.75,20.953125 q 0,6.046875 -3.953125,9.96875 -3.953125,3.9375 -10.0625,3.9375 -2.484375,0 -6.203125,-0.96875 l 0.984375,7.71875 Q 23.390625,41.5 23.921875,41.5 q 5.625,0 10.109375,2.921875 4.5,2.9375 4.5,9.046875 0,4.828125 -3.28125,8 -3.265625,3.1875 -8.4375,3.1875 -5.125,0 -8.546875,-3.234375 -3.421875,-3.21875 -4.390625,-9.65625 l -8.796875,1.5625 q 1.609375,8.828125 7.3125,13.6875 5.71875,4.859375 14.21875,4.859375 5.859375,0 10.78125,-2.515625 4.9375,-2.515625 7.546875,-6.859375 2.625,-4.34375 2.625,-9.234375 0,-4.625 -2.5,-8.4375 -2.484375,-3.8125 -7.359375,-6.0625 6.34375,-1.453125 9.859375,-6.078125 3.515625,-4.609375 3.515625,-11.546875 0,-9.375 -6.84375,-15.890625 -6.828125,-6.515625 -17.28125,-6.515625 -9.421875,0 -15.65625,5.609375 -6.21875,5.625 -7.09375,14.546875 z"
       inkscape:connector-curvature="0"
       style="stroke-linecap:butt;stroke-linejoin:round" />
    <path
       id="ArialMT-34-4"
       d="m 32.328125,0 v 17.140625 h -31.0625 v 8.0625 l 32.671875,46.375 h 7.171875 v -46.375 h 9.671875 v -8.0625 H 41.109375 V 0 Z m 0,25.203125 V 57.46875 L 9.90625,25.203125 Z"
       inkscape:connector-curvature="0"
       style="stroke-linecap:butt;stroke-linejoin:round" />
    <path
       id="ArialMT-35-0"
       d="M 4.15625,18.75 13.375,19.53125 Q 14.40625,12.796875 18.140625,9.390625 21.875,6 27.15625,6 33.5,6 37.890625,10.78125 42.28125,15.578125 42.28125,23.484375 42.28125,31 38.0625,35.34375 33.84375,39.703125 27,39.703125 q -4.25,0 -7.671875,-1.9375 -3.40625,-1.921875 -5.359375,-5 l -8.25,1.078125 6.921875,36.765625 H 48.25 v -8.40625 H 19.671875 L 15.828125,42.96875 q 6.4375,4.5 13.515625,4.5 9.375,0 15.8125,-6.5 6.453125,-6.5 6.453125,-16.703125 0,-9.71875 -5.65625,-16.796875 -6.890625,-8.6875 -18.796875,-8.6875 -9.765625,0 -15.953125,5.46875 Q 5.03125,9.71875 4.15625,18.75 Z"
       inkscape:connector-curvature="0"
       style="stroke-linecap:butt;stroke-linejoin:round" />
    <path
       id="ArialMT-36-0"
       d="M 49.75,54.046875 41.015625,53.375 q -1.171875,5.171875 -3.3125,7.515625 -3.578125,3.765625 -8.796875,3.765625 -4.203125,0 -7.375,-2.34375 Q 17.390625,59.28125 14.984375,53.46875 12.59375,47.65625 12.5,36.921875 15.671875,41.75 20.265625,44.09375 q 4.59375,2.34375 9.625,2.34375 8.78125,0 14.953125,-6.46875 Q 51.03125,33.5 51.03125,23.25 51.03125,16.5 48.125,10.71875 45.21875,4.9375 40.140625,1.859375 35.0625,-1.21875 28.609375,-1.21875 17.625,-1.21875 10.6875,6.859375 3.765625,14.9375 3.765625,33.5 q 0,20.75 7.65625,30.171875 6.6875,8.203125 18.015625,8.203125 8.453125,0 13.84375,-4.734375 Q 48.6875,62.40625 49.75,54.046875 Z M 13.875,23.1875 q 0,-4.53125 1.921875,-8.6875 Q 17.71875,10.359375 21.1875,8.171875 24.65625,6 28.46875,6 q 5.5625,0 9.5625,4.484375 4.015625,4.5 4.015625,12.21875 0,7.421875 -3.96875,11.6875 -3.953125,4.28125 -9.953125,4.28125 -5.953125,0 -10.109375,-4.28125 Q 13.875,30.125 13.875,23.1875 Z"
       inkscape:connector-curvature="0"
       style="stroke-linecap:butt;stroke-linejoin:round" />
    <path
       id="ArialMT-37-8"
       d="m 4.734375,62.203125 v 8.453125 h 46.34375 V 63.8125 Q 44.234375,56.546875 37.515625,44.484375 30.8125,32.421875 27.15625,19.671875 24.515625,10.6875 23.78125,0 H 14.75 q 0.140625,8.453125 3.3125,20.40625 3.171875,11.96875 9.109375,23.078125 5.9375,11.109375 12.625,18.71875 z"
       inkscape:connector-curvature="0"
       style="stroke-linecap:butt;stroke-linejoin:round" />
    <path
       id="ArialMT-38-7"
       d="m 17.671875,38.8125 q -5.46875,2.015625 -8.109375,5.71875 -2.625,3.71875 -2.625,8.890625 0,7.8125 5.609375,13.125 5.625,5.328125 14.9375,5.328125 9.375,0 15.09375,-5.453125 5.71875,-5.4375 5.71875,-13.25 0,-4.984375 -2.625,-8.671875 Q 43.0625,40.828125 37.75,38.8125 q 6.59375,-2.140625 10.03125,-6.9375 3.4375,-4.78125 3.4375,-11.421875 0,-9.171875 -6.5,-15.421875 -6.484375,-6.25 -17.078125,-6.25 -10.59375,0 -17.09375,6.265625 -6.5,6.28125 -6.5,15.65625 0,6.984375 3.546875,11.6875 3.546875,4.71875 10.078125,6.421875 z m -1.75,14.90625 q 0,-5.078125 3.265625,-8.3125 3.28125,-3.21875 8.5,-3.21875 5.078125,0 8.328125,3.1875 3.25,3.203125 3.25,7.84375 0,4.84375 -3.359375,8.140625 -3.34375,3.296875 -8.3125,3.296875 -5.03125,0 -8.359375,-3.234375 -3.3125,-3.21875 -3.3125,-7.703125 z M 13.09375,20.65625 q 0,-3.765625 1.78125,-7.28125 Q 16.65625,9.859375 20.171875,7.921875 23.6875,6 27.734375,6 34.03125,6 38.125,10.046875 q 4.109375,4.0625 4.109375,10.3125 0,6.34375 -4.21875,10.5 -4.21875,4.15625 -10.578125,4.15625 -6.203125,0 -10.28125,-4.109375 -4.0625,-4.09375 -4.0625,-10.25 z"
       inkscape:connector-curvature="0"
       style="stroke-linecap:butt;stroke-linejoin:round" />
    <path
       id="ArialMT-39-0"
       d="m 5.46875,16.546875 8.453125,0.78125 Q 14.984375,11.375 18.015625,8.6875 21.046875,6 25.78125,6 q 4.046875,0 7.09375,1.859375 3.0625,1.859375 5.015625,4.953125 1.953125,3.109375 3.265625,8.375 1.328125,5.28125 1.328125,10.75 0,0.578125 -0.04687,1.75 Q 39.79688,29.5 35.23438,26.875 q -4.5625,-2.609375 -9.890625,-2.609375 -8.890625,0 -15.046875,6.4375 -6.140625,6.453125 -6.140625,17 0,10.890625 6.421875,17.53125 Q 17,71.875 26.65625,71.875 q 6.984375,0 12.765625,-3.765625 5.796875,-3.75 8.796875,-10.71875 3,-6.953125 3,-20.140625 0,-13.71875 -2.984375,-21.84375 -2.96875,-8.125 -8.859375,-12.375 -5.875,-4.25 -13.78125,-4.25 -8.40625,0 -13.734375,4.65625 -5.3125,4.671875 -6.390625,13.109375 z m 35.984375,31.59375 q 0,7.578125 -4.03125,12.015625 -4.015625,4.4375 -9.6875,4.4375 -5.859375,0 -10.203125,-4.78125 -4.34375,-4.78125 -4.34375,-12.40625 0,-6.828125 4.125,-11.109375 4.125,-4.265625 10.171875,-4.265625 6.109375,0 10.03125,4.265625 3.9375,4.28125 3.9375,11.84375 z"
       inkscape:connector-curvature="0"
       style="stroke-linecap:butt;stroke-linejoin:round" />
    <path
       style="stroke:#000000;stroke-width:0.80000001;stroke-linecap:butt;stroke-linejoin:round"
       id="m8c650a6531"
       d="M 0,0 H -3.5"
       inkscape:connector-curvature="0" />
    <path
       id="ArialMT-44-6"
       d="M 7.71875,0 V 71.578125 H 32.375 q 8.34375,0 12.75,-1.015625 6.140625,-1.421875 10.484375,-5.125 5.671875,-4.796875 8.46875,-12.25 2.8125,-7.4375 2.8125,-17 0,-8.15625 -1.90625,-14.453125 -1.890625,-6.296875 -4.875,-10.4375 -2.984375,-4.125 -6.53125,-6.5 Q 50.046875,2.4375 45.046875,1.21875 40.046875,0 33.546875,0 Z m 9.46875,8.453125 h 15.28125 q 7.078125,0 11.109375,1.3125 4.03125,1.3125 6.421875,3.71875 3.375,3.359375 5.25,9.046875 1.875,5.6875 1.875,13.796875 0,11.234375 -3.6875,17.265625 -3.6875,6.03125 -8.953125,8.078125 -3.8125,1.46875 -12.25,1.46875 H 17.1875 Z"
       inkscape:connector-curvature="0"
       style="stroke-linecap:butt;stroke-linejoin:round" />
    <path
       id="ArialMT-43-1"
       d="m 58.796875,25.09375 9.46875,-2.390625 Q 65.28125,11.03125 57.546875,4.90625 49.8125,-1.21875 38.625,-1.21875 q -11.578125,0 -18.828125,4.703125 -7.25,4.71875 -11.03125,13.65625 -3.78125,8.9375 -3.78125,19.1875 0,11.1875 4.265625,19.5 4.28125,8.328125 12.15625,12.640625 7.890625,4.328125 17.359375,4.328125 10.75,0 18.0625,-5.46875 7.328125,-5.46875 10.21875,-15.375 L 57.71875,49.75 q -2.5,7.8125 -7.234375,11.375 -4.734375,3.578125 -11.90625,3.578125 -8.25,0 -13.796875,-3.96875 -5.546875,-3.953125 -7.796875,-10.625 Q 14.75,43.453125 14.75,36.375 q 0,-9.125 2.65625,-15.9375 2.65625,-6.8125 8.265625,-10.1875 5.625,-3.359375 12.171875,-3.359375 7.953125,0 13.46875,4.578125 5.53125,4.59375 7.484375,13.625 z"
       inkscape:connector-curvature="0"
       style="stroke-linecap:butt;stroke-linejoin:round" />
    <path
       id="ArialMT-52-4"
       d="M 7.859375,0 V 71.578125 H 39.59375 q 9.578125,0 14.546875,-1.9375 4.984375,-1.921875 7.96875,-6.8125 2.984375,-4.875 2.984375,-10.78125 0,-7.609375 -4.9375,-12.84375 Q 55.21875,33.984375 44.921875,32.5625 48.6875,30.765625 50.640625,29 54.78125,25.203125 58.5,19.484375 L 70.953125,0 H 59.03125 L 49.5625,14.890625 Q 45.40625,21.34375 42.71875,24.75 q -2.671875,3.421875 -4.796875,4.78125 -2.125,1.375 -4.328125,1.921875 -1.609375,0.328125 -5.265625,0.328125 h -11 V 0 Z m 9.46875,39.984375 h 20.375 q 6.484375,0 10.140625,1.34375 3.671875,1.34375 5.578125,4.296875 1.90625,2.953125 1.90625,6.421875 0,5.078125 -3.6875,8.34375 -3.6875,3.28125 -11.65625,3.28125 h -22.65625 z"
       inkscape:connector-curvature="0"
       style="stroke-linecap:butt;stroke-linejoin:round" />
    <path
       id="ArialMT-20-0"
       d=""
       inkscape:connector-curvature="0"
       style="stroke-linecap:butt;stroke-linejoin:round" />
    <path
       id="ArialMT-41-8"
       d="M -0.140625,0 27.34375,71.578125 H 37.546875 L 66.84375,0 H 56.0625 L 47.703125,21.6875 H 17.78125 L 9.90625,0 Z m 20.65625,29.390625 H 44.78125 L 37.3125,49.21875 Q 33.890625,58.25 32.234375,64.0625 30.859375,57.171875 28.375,50.390625 Z"
       inkscape:connector-curvature="0"
       style="stroke-linecap:butt;stroke-linejoin:round" />
    <path
       id="ArialMT-2d-1"
       d="m 3.171875,21.484375 v 8.84375 h 27 v -8.84375 z"
       inkscape:connector-curvature="0"
       style="stroke-linecap:butt;stroke-linejoin:round" />
    <path
       id="ArialMT-53-0"
       d="m 4.5,23 8.921875,0.78125 q 0.640625,-5.375 2.953125,-8.8125 2.328125,-3.4375 7.203125,-5.5625 4.890625,-2.125 11,-2.125 5.40625,0 9.5625,1.609375 4.15625,1.609375 6.171875,4.40625 2.03125,2.8125 2.03125,6.140625 0,3.359375 -1.953125,5.875 -1.953125,2.515625 -6.4375,4.234375 -2.890625,1.125 -12.75,3.484375 -9.859375,2.375 -13.8125,4.46875 -5.140625,2.6875 -7.65625,6.65625 -2.5,3.984375 -2.5,8.921875 0,5.421875 3.0625,10.125 3.078125,4.71875 8.984375,7.15625 5.921875,2.4375 13.140625,2.4375 7.953125,0 14.03125,-2.5625 6.09375,-2.5625 9.359375,-7.546875 3.265625,-4.96875 3.515625,-11.265625 L 50.25,50.734375 q -0.734375,6.78125 -4.96875,10.25 -4.21875,3.46875 -12.46875,3.46875 -8.59375,0 -12.53125,-3.15625 -3.921875,-3.140625 -3.921875,-7.578125 0,-3.859375 2.78125,-6.359375 2.734375,-2.484375 14.28125,-5.09375 11.546875,-2.609375 15.84375,-4.5625 6.25,-2.890625 9.21875,-7.3125 2.984375,-4.40625 2.984375,-10.171875 0,-5.71875 -3.265625,-10.78125 -3.265625,-5.046875 -9.40625,-7.859375 -6.125,-2.796875 -13.78125,-2.796875 -9.71875,0 -16.296875,2.828125 Q 12.15625,4.4375 8.421875,10.125 4.6875,15.828125 4.5,23 Z"
       inkscape:connector-curvature="0"
       style="stroke-linecap:butt;stroke-linejoin:round" />
    <path
       id="ArialMT-50-3"
       d="m 7.71875,0 v 71.578125 h 27 q 7.125,0 10.890625,-0.671875 5.265625,-0.890625 8.828125,-3.359375 3.578125,-2.453125 5.75,-6.90625 2.171875,-4.4375 2.171875,-9.765625 0,-9.125 -5.8125,-15.453125 -5.8125,-6.3125 -21,-6.3125 H 17.1875 V 0 Z m 9.46875,37.546875 h 18.5 q 9.1875,0 13.046875,3.421875 3.859375,3.421875 3.859375,9.625 0,4.484375 -2.28125,7.671875 Q 48.046875,61.46875 44.34375,62.5 41.9375,63.140625 35.5,63.140625 H 17.1875 Z"
       inkscape:connector-curvature="0"
       style="stroke-linecap:butt;stroke-linejoin:round" />
    <path
       style="stroke:#000000;stroke-width:0.80000001;stroke-linecap:butt;stroke-linejoin:round"
       id="me120880fa9"
       d="M 0,0 H 3.5"
       inkscape:connector-curvature="0" />
    <clipPath
       id="p3187bbcfc6"
       style="stroke-linecap:butt;stroke-linejoin:round">
      <rect
         id="rect18360"
         y="32.953876"
         x="30.661564"
         width="624.96002"
         height="217.44"
         style="stroke-linecap:butt;stroke-linejoin:round" />
    </clipPath>
    <clipPath
       id="p7e026fcef5"
       style="stroke-linecap:butt;stroke-linejoin:round">
      <rect
         id="rect18363"
         y="32.953876"
         x="694.68158"
         width="14.496"
         height="217.44"
         style="stroke-linecap:butt;stroke-linejoin:round" />
    </clipPath>
  </defs>
  <sodipodi:namedview
     id="base"
     pagecolor="#ffffff"
     bordercolor="#666666"
     borderopacity="1.0"
     inkscape:pageopacity="0.0"
     inkscape:pageshadow="2"
     inkscape:zoom="1.4"
     inkscape:cx="88.7489"
     inkscape:cy="163.45908"
     inkscape:document-units="mm"
     inkscape:current-layer="layer1"
     showgrid="false"
     inkscape:window-width="1216"
     inkscape:window-height="755"
     inkscape:window-x="64"
     inkscape:window-y="23"
     inkscape:window-maximized="0"
     inkscape:snap-page="false">
    <inkscape:grid
       type="xygrid"
       id="grid1138"
       units="mm"
       spacingx="0.24999999"
       spacingy="0.24999999"
       empspacing="4" />
  </sodipodi:namedview>
  <metadata
     id="metadata5">
    <rdf:RDF>
      <cc:Work
         rdf:about="">
        <dc:format>image/svg+xml</dc:format>
        <dc:type
           rdf:resource="http://purl.org/dc/dcmitype/StillImage" />
        <dc:title></dc:title>
      </cc:Work>
    </rdf:RDF>
  </metadata>
  <g
     inkscape:label="Layer 1"
     inkscape:groupmode="layer"
     id="layer1"
     transform="translate(0,-232)"
     style="stroke-linecap:butt;stroke-linejoin:round">
    <g
       id="matplotlib.axis_3"
       style="stroke-width:1.47159421;stroke-linecap:butt;stroke-linejoin:round"
       transform="matrix(0.23972489,0,0,0.23972489,15.000002,159.05022)" />
    <g
       id="matplotlib.axis_3-4"
       style="stroke-width:1.47159421;stroke-linecap:butt;stroke-linejoin:round"
       transform="matrix(0.23972489,0,0,0.23972489,15.000002,224.49693)" />
    <text
       xml:space="preserve"
       style="font-style:normal;font-weight:normal;font-size:3.30729151px;line-height:125%;font-family:sans-serif;letter-spacing:0px;word-spacing:0px;fill:#000000;fill-opacity:1;stroke:none;stroke-width:0.26458332px;stroke-linecap:butt;stroke-linejoin:miter;stroke-opacity:1"
       x="96.382629"
       y="165.89775"
       id="text11344"><tspan
         sodipodi:role="line"
         id="tspan11342"
         style="stroke-width:0.26458332px;stroke-linecap:butt;stroke-linejoin:round"
         x="96.382629"
         y="168.9151" /></text>
    <image
       sodipodi:absref="/Users/anto/Google Drive/data/manta/notebooks/48-spot_paper/figures/DCR_donor.png"
       y="234.41969"
       x="1"
       id="image2984"
       xlink:href="file:///Users/anto/Google%20Drive/data/manta/notebooks/48-spot_paper/figures/DCR_donor.png"
       preserveAspectRatio="none"
       height="30.580318"
       width="83"
       style="stroke-width:3.24487543;stroke-linecap:butt;stroke-linejoin:round" />
    <image
       sodipodi:absref="/Users/anto/Google Drive/data/manta/notebooks/48-spot_paper/figures/DCR_acceptor.png"
       y="266.41968"
       x="1"
       id="image3921"
       xlink:href="file:///Users/anto/Google%20Drive/data/manta/notebooks/48-spot_paper/figures/DCR_acceptor.png"
       preserveAspectRatio="none"
       height="30.580318"
       width="83"
       style="stroke-width:3.24487567;stroke-linecap:butt;stroke-linejoin:round" />
  </g>
</svg>
